<?xml version="1.0" encoding="utf-8"?>
<!-- Generator: Adobe Illustrator 24.2.0, SVG Export Plug-In . SVG Version: 6.00 Build 0)  -->
<svg version="1.1" id="Calque_1" xmlns="http://www.w3.org/2000/svg" xmlns:xlink="http://www.w3.org/1999/xlink" x="0px" y="0px"
	 viewBox="0 0 1230 300" style="enable-background:new 0 0 1230 300;" xml:space="preserve">
<style type="text/css">
	.st0{fill:#344358;}
	.st1{fill:#F39208;}
	.st2{fill:#FCC010;}
	.st3{fill:#F49619;}
	.st4{fill:#EC630E;}
	.st5{font-family:'xiaowei';}
	.st6{font-size:270px;}
</style>
<ellipse id="XMLID_2_" transform="matrix(0.3554 -0.9347 0.9347 0.3554 506.6063 1028.7975)" class="st0" cx="999.2" cy="147.1" rx="25.9" ry="25.9"/>
<ellipse id="XMLID_19_" transform="matrix(0.1934 -0.9811 0.9811 0.1934 768.3575 1099.8335)" class="st1" cx="1053.1" cy="82.6" rx="30.8" ry="30.8"/>
<circle id="XMLID_20_" class="st0" cx="1057.5" cy="166.8" r="13"/>
<g>
	<path id="XMLID_59_" class="st2" d="M180.6,298.2c-81.9,0-148.2-66.3-148.2-148.2S98.9,1.6,180.8,1.6L180.6,298.2z"/>
	<path id="XMLID_58_" class="st3" d="M180.8,35.1V76v137.7v50.8c-63.5,0-114.9-51.3-114.9-114.9C65.9,86.4,117.4,35,180.8,35.1z"/>
	<path id="XMLID_57_" class="st4" d="M180.8,76.1v137.7l-63.5-54.2c-5.8-5.1-6.2-14-0.8-19.4L180.7,76L180.8,76.1z"/>
</g>
<text transform="matrix(0.8684 0 0 1 181.4767 216.4938)" class="st0 st5 st6">Ning</text>
<text transform="matrix(0.8684 0 0 1 623.4049 216.4938)" class="st1 st5 st6">m</text>
<text transform="matrix(0.8684 0 0 1 748.8883 216.4938)" class="st0 st5 st6">op</text>
</svg>
